<?xml version="1.0" encoding="utf-8"?>
<!-- Generator: Adobe Illustrator 25.2.0, SVG Export Plug-In . SVG Version: 6.00 Build 0)  -->
<svg version="1.1" xmlns="http://www.w3.org/2000/svg" xmlns:xlink="http://www.w3.org/1999/xlink" x="0px" y="0px"
	 viewBox="0 0 746.67 152" style="enable-background:new 0 0 746.67 152;" xml:space="preserve">
<style type="text/css">
	.st0{display:none;}
	.st1{display:inline;}
	.st2{fill:#3F3F3F;}
	.st3{fill:#FF4C61;}
	.st4{display:inline;fill:#3F3F3F;}
	.st5{display:inline;fill:#FFFFFF;}
	.st6{fill:#FFFFFF;}
</style>
<g id="Layer_1" class="st0">
	<g class="st1">
		<g>
			<g>
				<path class="st2" d="M34.58,97.47l14.76-14.49c2.79,5.32,8.51,9.04,13.83,9.04c7.18,0,12.36-5.32,12.36-12.89V19.7h22.73v61.55
					c0,18.34-13.43,31.37-32.3,31.37C53.99,112.62,40.83,106.38,34.58,97.47z"/>
				<path class="st2" d="M175.88,42.3v68.73h-22.47v-7.84c-4.25,5.85-11.57,9.44-20.21,9.44c-14.76,0-25.26-11.03-25.26-26.59V42.3
					h21.54v38.68c0,7.58,4.79,12.89,11.7,12.89s12.1-5.18,12.1-11.96l0.13,0.4V42.3H175.88z"/>
				<path class="st2" d="M185.85,18.11h22.6v92.92h-22.6V18.11z"/>
				<path class="st2" d="M290.07,42.3v61.42c0,17.68-15.69,30.18-38.02,30.18c-12.36,0-24.06-3.85-31.11-9.17l7.58-15.69
					c4.25,3.59,12.23,6.12,20.07,6.12c11.3,0,18.88-5.18,18.88-12.5v-6.51c-5.45,6.25-13.43,9.84-21.93,9.84
					c-17.02,0-30.18-13.56-30.18-32.7s13.16-32.57,30.18-32.57c8.64,0,17.41,4.12,21.93,9.97V42.3H290.07z M267.47,73.27
					c0-8.11-5.98-13.83-14.49-13.83c-8.38,0-14.49,5.72-14.49,13.83c0,8.11,6.11,13.96,14.49,13.96
					C261.49,87.23,267.47,81.38,267.47,73.27z"/>
				<path class="st2" d="M367.57,42.3v68.73h-22.47v-7.84c-4.25,5.85-11.57,9.44-20.21,9.44c-14.75,0-25.26-11.03-25.26-26.59V42.3
					h21.54v38.68c0,7.58,4.79,12.89,11.7,12.89s12.1-5.18,12.1-11.96l0.13,0.4V42.3H367.57z"/>
				<path class="st2" d="M425.66,88.56l13.29,13.43c-6.12,6.25-17.95,10.63-28.18,10.63c-21.27,0-36.96-15.02-36.96-36.16
					c0-20.87,15.15-35.76,35.89-35.76c21.8,0,34.56,15.95,34.56,42.14h-49.05c2.13,6.91,7.58,11.57,14.89,11.57
					C415.43,94.41,421.54,92.15,425.66,88.56z M395.48,69.15h27.92c-1.86-6.25-6.51-10.37-13.29-10.37S397.88,62.77,395.48,69.15z"
					/>
				<path class="st2" d="M635.65,67.29v43.87h-21.54V71.28c0-6.91-4.52-11.83-10.9-11.83c-6.78,0-11.57,4.65-11.57,10.9v40.81
					h-21.54V71.28c0-6.91-4.52-11.83-10.9-11.83c-6.78,0-11.57,4.65-11.57,10.9v40.68h-22.47V42.3h22.47v8.91
					c3.32-6.51,9.97-10.5,18.34-10.5c9.17,0,17.15,4.52,21.67,11.83c3.72-7.18,12.1-11.83,22.2-11.83
					C624.22,40.71,635.65,51.74,635.65,67.29z"/>
				<path class="st2" d="M693.48,88.56l13.29,13.43c-6.12,6.25-17.95,10.63-28.18,10.63c-21.27,0-36.96-15.02-36.96-36.16
					c0-20.87,15.15-35.76,35.89-35.76c21.8,0,34.56,15.95,34.56,42.14h-49.05c2.13,6.91,7.58,11.57,14.89,11.57
					C683.24,94.41,689.36,92.15,693.48,88.56z M663.3,69.15h27.92c-1.86-6.25-6.51-10.37-13.29-10.37S665.69,62.77,663.3,69.15z"/>
			</g>
			<path class="st3" d="M504.28,77.09c0.07-0.68,0.1-1.37,0.1-2.06c0-5.36-2.06-10.23-5.43-13.88c-0.55,2.86-1.91,5.42-3.81,7.47
				c-3.43-1.85-7.34-2.9-11.45-2.9c-3.97,0-7.75,1-11.11,2.73c-1.82-2.02-3.11-4.52-3.65-7.29c-3.37,3.65-5.43,8.52-5.43,13.88
				c0,0.46,0.02,0.92,0.05,1.37c-2.56,3.73-4.07,8.18-4.07,12.92c0,12.85,11.1,23.68,24.21,23.68c13.11,0,24.21-10.84,24.21-23.68
				C507.89,84.86,506.56,80.67,504.28,77.09z M498.48,84.68l-7.17,6.99c-0.09,0.09-0.13,0.21-0.11,0.34l1.69,9.87
				c0.03,0.16-0.14,0.28-0.28,0.2l-8.86-4.66c-0.11-0.06-0.24-0.06-0.36,0l-8.86,4.66c-0.14,0.07-0.3-0.04-0.28-0.2l1.69-9.87
				c0.02-0.12-0.02-0.25-0.11-0.34l-7.17-6.99c-0.11-0.11-0.05-0.3,0.11-0.33l9.91-1.44c0.13-0.02,0.23-0.1,0.29-0.21l4.43-8.98
				c0.07-0.14,0.27-0.14,0.34,0l4.44,8.98c0.06,0.11,0.16,0.19,0.28,0.21l9.91,1.44C498.53,84.38,498.6,84.57,498.48,84.68z"/>
		</g>
	</g>
</g>
<g id="Layer_5" class="st0">
	<g class="st1">
		<g>
			<g>
				<path class="st2" d="M34.58,97.47l14.76-14.49c2.79,5.32,8.51,9.04,13.83,9.04c7.18,0,12.36-5.32,12.36-12.89V19.7h22.73v61.55
					c0,18.34-13.43,31.37-32.3,31.37C53.99,112.62,40.83,106.38,34.58,97.47z"/>
				<path class="st2" d="M175.88,42.3v68.73h-22.47v-7.84c-4.25,5.85-11.57,9.44-20.21,9.44c-14.76,0-25.26-11.03-25.26-26.59V42.3
					h21.54v38.68c0,7.58,4.79,12.89,11.7,12.89s12.1-5.18,12.1-11.96l0.13,0.4V42.3H175.88z"/>
				<path class="st2" d="M185.85,18.11h22.6v92.92h-22.6V18.11z"/>
				<path class="st2" d="M290.07,42.3v61.42c0,17.68-15.69,30.18-38.02,30.18c-12.36,0-24.06-3.85-31.11-9.17l7.58-15.69
					c4.25,3.59,12.23,6.12,20.07,6.12c11.3,0,18.88-5.18,18.88-12.5v-6.51c-5.45,6.25-13.43,9.84-21.93,9.84
					c-17.02,0-30.18-13.56-30.18-32.7s13.16-32.57,30.18-32.57c8.64,0,17.41,4.12,21.93,9.97V42.3H290.07z M267.47,73.27
					c0-8.11-5.98-13.83-14.49-13.83c-8.38,0-14.49,5.72-14.49,13.83c0,8.11,6.11,13.96,14.49,13.96
					C261.49,87.23,267.47,81.38,267.47,73.27z"/>
				<path class="st2" d="M367.57,42.3v68.73h-22.47v-7.84c-4.25,5.85-11.57,9.44-20.21,9.44c-14.75,0-25.26-11.03-25.26-26.59V42.3
					h21.54v38.68c0,7.58,4.79,12.89,11.7,12.89s12.1-5.18,12.1-11.96l0.13,0.4V42.3H367.57z"/>
				<path class="st2" d="M425.66,88.56l13.29,13.43c-6.12,6.25-17.95,10.63-28.18,10.63c-21.27,0-36.96-15.02-36.96-36.16
					c0-20.87,15.15-35.76,35.89-35.76c21.8,0,34.56,15.95,34.56,42.14h-49.05c2.13,6.91,7.58,11.57,14.89,11.57
					C415.43,94.41,421.54,92.15,425.66,88.56z M395.48,69.15h27.92c-1.86-6.25-6.51-10.37-13.29-10.37S397.88,62.77,395.48,69.15z"
					/>
				<path class="st2" d="M635.65,67.29v43.87h-21.54V71.28c0-6.91-4.52-11.83-10.9-11.83c-6.78,0-11.57,4.65-11.57,10.9v40.81
					h-21.54V71.28c0-6.91-4.52-11.83-10.9-11.83c-6.78,0-11.57,4.65-11.57,10.9v40.68h-22.47V42.3h22.47v8.91
					c3.32-6.51,9.97-10.5,18.34-10.5c9.17,0,17.15,4.52,21.67,11.83c3.72-7.18,12.1-11.83,22.2-11.83
					C624.22,40.71,635.65,51.74,635.65,67.29z"/>
				<path class="st2" d="M693.48,88.56l13.29,13.43c-6.12,6.25-17.95,10.63-28.18,10.63c-21.27,0-36.96-15.02-36.96-36.16
					c0-20.87,15.15-35.76,35.89-35.76c21.8,0,34.56,15.95,34.56,42.14h-49.05c2.13,6.91,7.58,11.57,14.89,11.57
					C683.24,94.41,689.36,92.15,693.48,88.56z M663.3,69.15h27.92c-1.86-6.25-6.51-10.37-13.29-10.37S665.69,62.77,663.3,69.15z"/>
			</g>
			<path class="st3" d="M505.28,67.09c0.07-0.68,0.1-1.37,0.1-2.06c0-5.36-2.06-10.23-5.43-13.88c-0.55,2.86-1.91,5.42-3.81,7.47
				c-3.43-1.85-7.34-2.9-11.45-2.9c-3.97,0-7.75,1-11.11,2.73c-1.82-2.02-3.11-4.52-3.65-7.29c-3.37,3.65-5.43,8.52-5.43,13.88
				c0,0.46,0.02,0.92,0.05,1.37c-2.56,3.73-4.07,8.18-4.07,12.92c0,12.85,11.1,23.68,24.21,23.68c13.11,0,24.21-10.84,24.21-23.68
				C508.89,74.86,507.56,70.67,505.28,67.09z M499.48,74.68l-7.17,6.99c-0.09,0.09-0.13,0.21-0.11,0.34l1.69,9.87
				c0.03,0.16-0.14,0.28-0.28,0.2l-8.86-4.66c-0.11-0.06-0.24-0.06-0.36,0l-8.86,4.66c-0.14,0.07-0.3-0.04-0.28-0.2l1.69-9.87
				c0.02-0.12-0.02-0.25-0.11-0.34l-7.17-6.99c-0.11-0.11-0.05-0.3,0.11-0.33l9.91-1.44c0.13-0.02,0.23-0.1,0.29-0.21l4.43-8.98
				c0.07-0.14,0.27-0.14,0.34,0l4.44,8.98c0.06,0.11,0.16,0.19,0.28,0.21l9.91,1.44C499.53,74.38,499.6,74.57,499.48,74.68z"/>
		</g>
	</g>
</g>
<g id="Layer_3">
	<g>
		<g>
			<g>
				<path class="st2" d="M19.91,97.47l14.76-14.49c2.79,5.32,8.51,9.04,13.83,9.04c7.18,0,12.36-5.32,12.36-12.89V19.7h22.73v61.55
					c0,18.34-13.43,31.37-32.3,31.37C39.32,112.62,26.16,106.38,19.91,97.47z"/>
				<path class="st2" d="M161.22,42.3v68.73h-22.47v-7.84c-4.25,5.85-11.57,9.44-20.21,9.44c-14.76,0-25.26-11.03-25.26-26.59V42.3
					h21.54v38.68c0,7.58,4.79,12.89,11.7,12.89c6.91,0,12.1-5.18,12.1-11.96l0.13,0.4V42.3H161.22z"/>
				<path class="st2" d="M171.19,18.11h22.6v92.92h-22.6V18.11z"/>
				<path class="st2" d="M275.41,42.3v61.42c0,17.68-15.69,30.18-38.02,30.18c-12.36,0-24.06-3.85-31.11-9.17l7.58-15.69
					c4.25,3.59,12.23,6.12,20.07,6.12c11.3,0,18.88-5.18,18.88-12.5v-6.51c-5.45,6.25-13.43,9.84-21.93,9.84
					c-17.02,0-30.18-13.56-30.18-32.7s13.16-32.57,30.18-32.57c8.64,0,17.41,4.12,21.93,9.97V42.3H275.41z M252.81,73.27
					c0-8.11-5.98-13.83-14.49-13.83c-8.38,0-14.49,5.72-14.49,13.83c0,8.11,6.11,13.96,14.49,13.96
					C246.82,87.23,252.81,81.38,252.81,73.27z"/>
				<path class="st2" d="M352.91,42.3v68.73h-22.47v-7.84c-4.25,5.85-11.57,9.44-20.21,9.44c-14.75,0-25.26-11.03-25.26-26.59V42.3
					h21.54v38.68c0,7.58,4.79,12.89,11.7,12.89s12.1-5.18,12.1-11.96l0.13,0.4V42.3H352.91z"/>
				<path class="st2" d="M410.99,88.56l13.29,13.43c-6.12,6.25-17.95,10.63-28.18,10.63c-21.27,0-36.96-15.02-36.96-36.16
					c0-20.87,15.15-35.76,35.89-35.76c21.8,0,34.56,15.95,34.56,42.14h-49.05c2.13,6.91,7.58,11.57,14.89,11.57
					C400.76,94.41,406.87,92.15,410.99,88.56z M380.82,69.15h27.92c-1.86-6.25-6.51-10.37-13.29-10.37S383.21,62.77,380.82,69.15z"
					/>
				<path class="st2" d="M650.32,67.29v43.87h-21.54V71.28c0-6.91-4.52-11.83-10.9-11.83c-6.78,0-11.57,4.65-11.57,10.9v40.81
					h-21.54V71.28c0-6.91-4.52-11.83-10.9-11.83c-6.78,0-11.57,4.65-11.57,10.9v40.68h-22.47V42.3h22.47v8.91
					c3.32-6.51,9.97-10.5,18.34-10.5c9.17,0,17.15,4.52,21.67,11.83c3.72-7.18,12.1-11.83,22.2-11.83
					C638.89,40.71,650.32,51.74,650.32,67.29z"/>
				<path class="st2" d="M708.15,88.56l13.29,13.43c-6.12,6.25-17.95,10.63-28.18,10.63c-21.27,0-36.96-15.02-36.96-36.16
					c0-20.87,15.15-35.76,35.89-35.76c21.8,0,34.56,15.95,34.56,42.14H677.7c2.13,6.91,7.58,11.57,14.89,11.57
					C697.91,94.41,704.02,92.15,708.15,88.56z M677.97,69.15h27.92c-1.86-6.25-6.51-10.37-13.29-10.37S680.36,62.77,677.97,69.15z"
					/>
			</g>
			<path class="st3" d="M519.08,51.54c0.11-1.16,0.17-2.32,0.17-3.51c0-9.13-3.51-17.42-9.24-23.63c-0.94,4.86-3.25,9.23-6.49,12.71
				c-5.84-3.14-12.5-4.94-19.5-4.94c-6.76,0-13.2,1.69-18.91,4.64c-3.09-3.44-5.3-7.69-6.21-12.41c-5.74,6.21-9.24,14.5-9.24,23.63
				c0,0.78,0.03,1.56,0.08,2.33c-4.36,6.35-6.93,13.92-6.93,21.98c0,21.87,18.89,40.31,41.21,40.31c22.32,0,41.21-18.45,41.21-40.31
				C525.22,64.78,522.96,57.64,519.08,51.54z M509.21,64.47L497,76.37c-0.15,0.14-0.22,0.37-0.18,0.57l2.88,16.8
				c0.05,0.27-0.23,0.47-0.47,0.35l-15.09-7.94c-0.19-0.1-0.42-0.1-0.6,0l-15.09,7.94c-0.24,0.13-0.52-0.08-0.47-0.35l2.88-16.8
				c0.03-0.21-0.04-0.43-0.19-0.57l-12.21-11.9c-0.19-0.19-0.08-0.52,0.18-0.55l16.87-2.45c0.21-0.03,0.4-0.16,0.49-0.36l7.54-15.28
				c0.12-0.25,0.46-0.25,0.58,0l7.55,15.28c0.09,0.2,0.28,0.33,0.48,0.36l16.87,2.45C509.3,63.95,509.4,64.28,509.21,64.47z"/>
		</g>
	</g>
</g>
<g id="Layer_4" class="st0">
	<g class="st1">
		<g>
			<g>
				<path class="st2" d="M56,94.68l12.84-12.61c2.43,4.63,7.4,7.87,12.03,7.87c6.25,0,10.76-4.63,10.76-11.22v-51.7h19.78v53.55
					c0,15.96-11.68,27.29-28.1,27.29C72.89,107.86,61.44,102.43,56,94.68z"/>
				<path class="st2" d="M178.94,46.68v59.79h-19.55v-6.82c-3.7,5.09-10.06,8.21-17.58,8.21c-12.84,0-21.97-9.6-21.97-23.13V46.68
					h18.74v33.66c0,6.59,4.16,11.22,10.18,11.22c6.01,0,10.52-4.51,10.52-10.41l0.12,0.35V46.68H178.94z"/>
				<path class="st2" d="M187.61,25.63h19.66v80.84h-19.66V25.63z"/>
				<path class="st2" d="M278.28,46.68v53.43c0,15.38-13.65,26.25-33.08,26.25c-10.76,0-20.93-3.35-27.06-7.98l6.59-13.65
					c3.7,3.12,10.64,5.32,17.46,5.32c9.83,0,16.42-4.51,16.42-10.87v-5.67c-4.74,5.44-11.68,8.56-19.08,8.56
					c-14.8,0-26.25-11.8-26.25-28.45s11.45-28.34,26.25-28.34c7.52,0,15.15,3.59,19.08,8.67v-7.29H278.28z M258.62,73.63
					c0-7.05-5.2-12.03-12.61-12.03c-7.29,0-12.61,4.97-12.61,12.03c0,7.06,5.32,12.14,12.61,12.14
					C253.42,85.77,258.62,80.68,258.62,73.63z"/>
				<path class="st2" d="M345.71,46.68v59.79h-19.55v-6.82c-3.7,5.09-10.06,8.21-17.58,8.21c-12.84,0-21.97-9.6-21.97-23.13V46.68
					h18.74v33.66c0,6.59,4.16,11.22,10.18,11.22s10.52-4.51,10.52-10.41l0.12,0.35V46.68H345.71z"/>
				<path class="st2" d="M396.25,86.93l11.57,11.68c-5.32,5.44-15.61,9.25-24.52,9.25c-18.5,0-32.15-13.07-32.15-31.46
					c0-18.16,13.18-31.11,31.23-31.11c18.97,0,30.07,13.88,30.07,36.66h-42.68c1.85,6.01,6.59,10.06,12.95,10.06
					C387.34,92.02,392.67,90.05,396.25,86.93z M370,70.04h24.29c-1.62-5.44-5.67-9.02-11.57-9.02
					C376.82,61.02,372.08,64.49,370,70.04z"/>
				<path class="st2" d="M624.17,68.43v38.17h-18.74v-34.7c0-6.01-3.93-10.29-9.48-10.29c-5.9,0-10.06,4.05-10.06,9.48v35.51h-18.74
					v-34.7c0-6.01-3.93-10.29-9.48-10.29c-5.9,0-10.06,4.05-10.06,9.48v35.39h-19.55V46.68h19.55v7.75
					c2.89-5.67,8.67-9.14,15.96-9.14c7.98,0,14.92,3.93,18.85,10.29c3.24-6.25,10.52-10.29,19.31-10.29
					C614.22,45.29,624.17,54.89,624.17,68.43z"/>
				<path class="st2" d="M674.48,86.93l11.57,11.68c-5.32,5.44-15.61,9.25-24.52,9.25c-18.5,0-32.15-13.07-32.15-31.46
					c0-18.16,13.18-31.11,31.23-31.11c18.97,0,30.07,13.88,30.07,36.66h-42.68c1.85,6.01,6.59,10.06,12.95,10.06
					C665.57,92.02,670.89,90.05,674.48,86.93z M648.22,70.04h24.29c-1.62-5.44-5.67-9.02-11.57-9.02S650.3,64.49,648.22,70.04z"/>
			</g>
			<path class="st3" d="M505.77,54.79c0.12-1.2,0.18-2.4,0.18-3.62c0-9.43-3.62-18-9.55-24.41c-0.97,5.02-3.36,9.53-6.71,13.14
				c-6.04-3.25-12.92-5.11-20.15-5.11c-6.98,0-13.64,1.75-19.53,4.8c-3.19-3.55-5.47-7.95-6.42-12.83
				c-5.93,6.42-9.55,14.99-9.55,24.41c0,0.81,0.03,1.61,0.08,2.41c-4.5,6.57-7.16,14.39-7.16,22.72c0,22.59,19.52,41.65,42.58,41.65
				c23.06,0,42.58-19.06,42.58-41.65C512.13,68.46,509.78,61.09,505.77,54.79z M495.58,68.15l-12.62,12.3
				c-0.16,0.15-0.23,0.38-0.19,0.59l2.97,17.36c0.05,0.28-0.24,0.49-0.49,0.36l-15.59-8.2c-0.2-0.1-0.43-0.1-0.62,0l-15.59,8.2
				c-0.25,0.13-0.53-0.08-0.49-0.36l2.98-17.36c0.03-0.21-0.04-0.44-0.2-0.59l-12.62-12.3c-0.2-0.2-0.08-0.53,0.19-0.57l17.43-2.53
				c0.22-0.03,0.41-0.17,0.51-0.37l7.8-15.79c0.12-0.25,0.48-0.25,0.6,0l7.8,15.79c0.1,0.2,0.29,0.34,0.5,0.37l17.43,2.53
				C495.67,67.61,495.78,67.95,495.58,68.15z"/>
		</g>
	</g>
</g>
<g id="Layer_2" class="st0">
	<g class="st1">
		<g>
			<g>
				<g>
					<path class="st2" d="M34.58,97.47l14.76-14.49c2.79,5.32,8.51,9.04,13.83,9.04c7.18,0,12.36-5.32,12.36-12.89V19.7h22.73v61.55
						c0,18.34-13.43,31.37-32.3,31.37C53.99,112.62,40.83,106.38,34.58,97.47z"/>
					<path class="st2" d="M175.88,42.3v68.73h-22.47v-7.84c-4.25,5.85-11.57,9.44-20.21,9.44c-14.76,0-25.26-11.03-25.26-26.59V42.3
						h21.54v38.68c0,7.58,4.79,12.89,11.7,12.89s12.1-5.18,12.1-11.96l0.13,0.4V42.3H175.88z"/>
					<path class="st2" d="M185.85,18.11h22.6v92.92h-22.6V18.11z"/>
					<path class="st2" d="M290.07,42.3v61.42c0,17.68-15.69,30.18-38.02,30.18c-12.36,0-24.06-3.85-31.11-9.17l7.58-15.69
						c4.25,3.59,12.23,6.12,20.07,6.12c11.3,0,18.88-5.18,18.88-12.5v-6.51c-5.45,6.25-13.43,9.84-21.93,9.84
						c-17.02,0-30.18-13.56-30.18-32.7s13.16-32.57,30.18-32.57c8.64,0,17.41,4.12,21.93,9.97V42.3H290.07z"/>
					<path class="st2" d="M367.57,42.3v68.73h-22.47v-7.84c-4.25,5.85-11.57,9.44-20.21,9.44c-14.75,0-25.26-11.03-25.26-26.59V42.3
						h21.54v38.68c0,7.58,4.79,12.89,11.7,12.89s12.1-5.18,12.1-11.96l0.13,0.4V42.3H367.57z"/>
					<path class="st2" d="M425.66,88.56l13.29,13.43c-6.12,6.25-17.95,10.63-28.18,10.63c-21.27,0-36.96-15.02-36.96-36.16
						c0-20.87,15.15-35.76,35.89-35.76c21.8,0,34.56,15.95,34.56,42.14h-49.05c2.13,6.91,7.58,11.57,14.89,11.57
						C415.43,94.41,421.54,92.15,425.66,88.56z M395.48,69.15h27.92c-1.86-6.25-6.51-10.37-13.29-10.37S397.88,62.77,395.48,69.15z"
						/>
					<path class="st2" d="M635.65,67.29v43.87h-21.54V71.28c0-6.91-4.52-11.83-10.9-11.83c-6.78,0-11.57,4.65-11.57,10.9v40.81
						h-21.54V71.28c0-6.91-4.52-11.83-10.9-11.83c-6.78,0-11.57,4.65-11.57,10.9v40.68h-22.47V42.3h22.47v8.91
						c3.32-6.51,9.97-10.5,18.34-10.5c9.17,0,17.15,4.52,21.67,11.83c3.72-7.18,12.1-11.83,22.2-11.83
						C624.22,40.71,635.65,51.74,635.65,67.29z"/>
					<path class="st2" d="M693.48,88.56l13.29,13.43c-6.12,6.25-17.95,10.63-28.18,10.63c-21.27,0-36.96-15.02-36.96-36.16
						c0-20.87,15.15-35.76,35.89-35.76c21.8,0,34.56,15.95,34.56,42.14h-49.05c2.13,6.91,7.58,11.57,14.89,11.57
						C683.24,94.41,689.36,92.15,693.48,88.56z M663.3,69.15h27.92c-1.86-6.25-6.51-10.37-13.29-10.37S665.69,62.77,663.3,69.15z"/>
				</g>
				<path class="st3" d="M504.28,77.09c0.07-0.68,0.1-1.37,0.1-2.06c0-5.36-2.06-10.23-5.43-13.88c-0.55,2.86-1.91,5.42-3.81,7.47
					c-3.43-1.85-7.34-2.9-11.45-2.9c-3.97,0-7.75,1-11.11,2.73c-1.82-2.02-3.11-4.52-3.65-7.29c-3.37,3.65-5.43,8.52-5.43,13.88
					c0,0.46,0.02,0.92,0.05,1.37c-2.56,3.73-4.07,8.18-4.07,12.92c0,12.85,11.1,23.68,24.21,23.68c13.11,0,24.21-10.84,24.21-23.68
					C507.89,84.86,506.56,80.67,504.28,77.09z M498.48,84.68l-7.17,6.99c-0.09,0.09-0.13,0.21-0.11,0.34l1.69,9.87
					c0.03,0.16-0.14,0.28-0.28,0.2l-8.86-4.66c-0.11-0.06-0.24-0.06-0.36,0l-8.86,4.66c-0.14,0.07-0.3-0.04-0.28-0.2l1.69-9.87
					c0.02-0.12-0.02-0.25-0.11-0.34l-7.17-6.99c-0.11-0.11-0.05-0.3,0.11-0.33l9.91-1.44c0.13-0.02,0.23-0.1,0.29-0.21l4.43-8.98
					c0.07-0.14,0.27-0.14,0.34,0l4.44,8.98c0.06,0.11,0.16,0.19,0.28,0.21l9.91,1.44C498.53,84.38,498.6,84.57,498.48,84.68z"/>
			</g>
		</g>
		<path class="st6" d="M264.5,68.54l-7.17,6.99c-0.09,0.09-0.13,0.21-0.11,0.34l1.69,9.87c0.03,0.16-0.14,0.28-0.28,0.2l-8.86-4.66
			c-0.11-0.06-0.24-0.06-0.36,0l-8.86,4.66c-0.14,0.07-0.3-0.04-0.28-0.2l1.69-9.87c0.02-0.12-0.02-0.25-0.11-0.34l-7.17-6.99
			c-0.11-0.11-0.05-0.3,0.11-0.33l9.91-1.44c0.13-0.02,0.23-0.1,0.29-0.21l4.43-8.98c0.07-0.14,0.27-0.14,0.34,0l4.44,8.98
			c0.06,0.11,0.16,0.19,0.28,0.21l9.91,1.44C264.56,68.24,264.62,68.43,264.5,68.54z"/>
	</g>
</g>
</svg>
